<svg xmlns="http://www.w3.org/2000/svg" width="1024" height="1024" viewBox="0 0 1024 1024">
  <defs>
    <linearGradient id="bg" x1="0%" y1="0%" x2="100%" y2="100%">
      <stop offset="0%" stop-color="#060816"/>
      <stop offset="45%" stop-color="#1f2a7a"/>
      <stop offset="78%" stop-color="#7c3aed"/>
      <stop offset="100%" stop-color="#06b6d4"/>
    </linearGradient>
    <radialGradient id="glow" cx="80%" cy="12%" r="68%">
      <stop offset="0%" stop-color="#f472b6" stop-opacity="0.55"/>
      <stop offset="100%" stop-color="#f472b6" stop-opacity="0"/>
    </radialGradient>
    <linearGradient id="badge" x1="0%" y1="0%" x2="100%" y2="100%">
      <stop offset="0%" stop-color="#22d3ee"/>
      <stop offset="100%" stop-color="#a855f7"/>
    </linearGradient>
    <linearGradient id="label" x1="0%" y1="0%" x2="100%" y2="100%">
      <stop offset="0%" stop-color="#0b1026"/>
      <stop offset="100%" stop-color="#172554"/>
    </linearGradient>
  </defs>

  <rect x="64" y="64" width="896" height="896" rx="220" fill="url(#bg)"/>
  <rect x="64" y="64" width="896" height="896" rx="220" fill="url(#glow)"/>

  <rect x="236" y="176" width="552" height="672" rx="76" fill="#eef4ff"/>
  <rect x="236" y="176" width="552" height="148" rx="76" fill="#0b1024"/>
  <rect x="236" y="252" width="552" height="72" fill="#0b1024"/>
  <path d="M676 176h112v112z" fill="#dbeafe"/>
  <rect x="322" y="138" width="40" height="74" rx="20" fill="#eef4ff"/>
  <rect x="662" y="138" width="40" height="74" rx="20" fill="#eef4ff"/>

  <circle cx="324" cy="408" r="14" fill="#38bdf8"/>
  <rect x="356" y="394" width="290" height="28" rx="14" fill="#94a3b8"/>
  <circle cx="324" cy="492" r="14" fill="#38bdf8"/>
  <rect x="356" y="478" width="290" height="28" rx="14" fill="#94a3b8"/>
  <circle cx="324" cy="576" r="14" fill="#38bdf8"/>
  <rect x="356" y="562" width="244" height="28" rx="14" fill="#94a3b8"/>

  <circle cx="682" cy="652" r="142" fill="url(#badge)"/>
  <circle cx="682" cy="652" r="108" fill="#e2e8f0"/>
  <path d="M634 650l34 34 66-72" fill="none" stroke="#0b1024" stroke-width="24" stroke-linecap="round" stroke-linejoin="round"/>

  <rect x="286" y="696" width="246" height="78" rx="39" fill="url(#label)"/>
  <text
    x="409"
    y="731"
    text-anchor="middle"
    font-family="Segoe UI, Inter, Helvetica, Arial, sans-serif"
    font-size="30"
    font-weight="800"
    letter-spacing="3"
    fill="#e2e8f0"
  >
    NXT
  </text>
  <text
    x="409"
    y="758"
    text-anchor="middle"
    font-family="Segoe UI, Inter, Helvetica, Arial, sans-serif"
    font-size="18"
    font-weight="700"
    letter-spacing="2"
    fill="#cbd5e1"
  >
    MINUTES
  </text>
</svg>
