<svg xmlns="http://www.w3.org/2000/svg" width="1024" height="1024" viewBox="0 0 1024 1024">
  <defs>
    <linearGradient id="bg" x1="0%" y1="0%" x2="100%" y2="100%">
      <stop offset="0%" stop-color="#0b1020"/>
      <stop offset="40%" stop-color="#1d4ed8"/>
      <stop offset="100%" stop-color="#06b6d4"/>
    </linearGradient>
    <radialGradient id="flare" cx="82%" cy="14%" r="64%">
      <stop offset="0%" stop-color="#f0abfc" stop-opacity="0.58"/>
      <stop offset="100%" stop-color="#f0abfc" stop-opacity="0"/>
    </radialGradient>
    <linearGradient id="clock" x1="0%" y1="0%" x2="100%" y2="100%">
      <stop offset="0%" stop-color="#22d3ee"/>
      <stop offset="100%" stop-color="#0ea5e9"/>
    </linearGradient>
  </defs>

  <rect x="64" y="64" width="896" height="896" rx="220" fill="url(#bg)"/>
  <rect x="64" y="64" width="896" height="896" rx="220" fill="url(#flare)"/>

  <rect x="212" y="210" width="602" height="604" rx="78" fill="#f8fafc"/>
  <rect x="212" y="210" width="602" height="170" rx="78" fill="#0b1020"/>
  <rect x="212" y="322" width="602" height="58" fill="#0b1020"/>
  <rect x="316" y="172" width="48" height="82" rx="24" fill="#f8fafc"/>
  <rect x="662" y="172" width="48" height="82" rx="24" fill="#f8fafc"/>

  <rect x="292" y="472" width="258" height="34" rx="17" fill="#cbd5e1"/>
  <rect x="292" y="538" width="258" height="34" rx="17" fill="#cbd5e1"/>
  <rect x="292" y="604" width="214" height="34" rx="17" fill="#cbd5e1"/>

  <circle cx="684" cy="626" r="154" fill="url(#clock)"/>
  <circle cx="684" cy="626" r="117" fill="#ecfeff"/>
  <path d="M684 565v64l48 34" fill="none" stroke="#0b1020" stroke-width="24" stroke-linecap="round" stroke-linejoin="round"/>
</svg>
