<svg xmlns="http://www.w3.org/2000/svg" width="1024" height="1024" viewBox="0 0 1024 1024">
  <defs>
    <linearGradient id="bg" x1="0%" y1="0%" x2="100%" y2="100%">
      <stop offset="0%" stop-color="#0f172a"/>
      <stop offset="45%" stop-color="#1e40af"/>
      <stop offset="100%" stop-color="#0ea5e9"/>
    </linearGradient>
    <radialGradient id="light" cx="22%" cy="10%" r="70%">
      <stop offset="0%" stop-color="#e0f2fe" stop-opacity="0.28"/>
      <stop offset="100%" stop-color="#e0f2fe" stop-opacity="0"/>
    </radialGradient>
    <linearGradient id="badge" x1="0%" y1="0%" x2="100%" y2="100%">
      <stop offset="0%" stop-color="#22c55e"/>
      <stop offset="100%" stop-color="#06b6d4"/>
    </linearGradient>
  </defs>

  <rect x="64" y="64" width="896" height="896" rx="220" fill="url(#bg)"/>
  <rect x="64" y="64" width="896" height="896" rx="220" fill="url(#light)"/>

  <rect x="236" y="176" width="552" height="672" rx="76" fill="#f8fafc"/>
  <rect x="236" y="176" width="552" height="148" rx="76" fill="#0f172a"/>
  <rect x="236" y="252" width="552" height="72" fill="#0f172a"/>
  <path d="M676 176h112v112z" fill="#dbeafe"/>
  <rect x="322" y="138" width="40" height="74" rx="20" fill="#f8fafc"/>
  <rect x="662" y="138" width="40" height="74" rx="20" fill="#f8fafc"/>

  <circle cx="324" cy="408" r="14" fill="#3b82f6"/>
  <rect x="356" y="394" width="290" height="28" rx="14" fill="#94a3b8"/>
  <circle cx="324" cy="492" r="14" fill="#3b82f6"/>
  <rect x="356" y="478" width="290" height="28" rx="14" fill="#94a3b8"/>
  <circle cx="324" cy="576" r="14" fill="#3b82f6"/>
  <rect x="356" y="562" width="244" height="28" rx="14" fill="#94a3b8"/>

  <circle cx="682" cy="652" r="142" fill="url(#badge)"/>
  <circle cx="682" cy="652" r="108" fill="#ecfeff"/>
  <path d="M634 650l34 34 66-72" fill="none" stroke="#0f172a" stroke-width="24" stroke-linecap="round" stroke-linejoin="round"/>
</svg>
