<svg xmlns="http://www.w3.org/2000/svg" width="1400" height="360" viewBox="0 0 1400 360">
  <defs>
    <linearGradient id="bg" x1="0%" y1="0%" x2="100%" y2="100%">
      <stop offset="0%" stop-color="#0b1020"/>
      <stop offset="40%" stop-color="#1d4ed8"/>
      <stop offset="100%" stop-color="#06b6d4"/>
    </linearGradient>
    <linearGradient id="word" x1="0%" y1="0%" x2="100%" y2="0%">
      <stop offset="0%" stop-color="#0b1020"/>
      <stop offset="45%" stop-color="#1d4ed8"/>
      <stop offset="100%" stop-color="#0891b2"/>
    </linearGradient>
    <radialGradient id="flare" cx="82%" cy="14%" r="64%">
      <stop offset="0%" stop-color="#f0abfc" stop-opacity="0.58"/>
      <stop offset="100%" stop-color="#f0abfc" stop-opacity="0"/>
    </radialGradient>
  </defs>

  <rect x="16" y="16" width="328" height="328" rx="84" fill="url(#bg)"/>
  <rect x="16" y="16" width="328" height="328" rx="84" fill="url(#flare)"/>

  <rect x="66" y="70" width="228" height="222" rx="28" fill="#f8fafc"/>
  <rect x="66" y="70" width="228" height="68" rx="28" fill="#0b1020"/>
  <rect x="66" y="112" width="228" height="26" fill="#0b1020"/>

  <rect x="96" y="174" width="100" height="14" rx="7" fill="#cbd5e1"/>
  <rect x="96" y="201" width="100" height="14" rx="7" fill="#cbd5e1"/>
  <rect x="96" y="228" width="82" height="14" rx="7" fill="#cbd5e1"/>

  <rect x="108" y="56" width="18" height="34" rx="9" fill="#f8fafc"/>
  <rect x="234" y="56" width="18" height="34" rx="9" fill="#f8fafc"/>

  <circle cx="246" cy="232" r="54" fill="#22d3ee"/>
  <circle cx="246" cy="232" r="40" fill="#ecfeff"/>
  <path d="M246 210v22l16 11" fill="none" stroke="#0b1020" stroke-width="10" stroke-linecap="round" stroke-linejoin="round"/>

  <text
    x="392"
    y="200"
    font-family="Segoe UI, Inter, Helvetica, Arial, sans-serif"
    font-size="116"
    font-weight="800"
    letter-spacing="-1"
    fill="url(#word)"
  >
    NXTMinutes
  </text>
  <text
    x="396"
    y="258"
    font-family="Segoe UI, Inter, Helvetica, Arial, sans-serif"
    font-size="34"
    font-weight="600"
    letter-spacing="4"
    fill="#334155"
  >
    MEETING OPS, FAST
  </text>
</svg>
