<svg xmlns="http://www.w3.org/2000/svg" width="1400" height="360" viewBox="0 0 1400 360">
  <defs>
    <linearGradient id="bg" x1="0%" y1="0%" x2="100%" y2="100%">
      <stop offset="0%" stop-color="#0f172a"/>
      <stop offset="45%" stop-color="#1e40af"/>
      <stop offset="100%" stop-color="#0ea5e9"/>
    </linearGradient>
    <linearGradient id="word" x1="0%" y1="0%" x2="100%" y2="0%">
      <stop offset="0%" stop-color="#0f172a"/>
      <stop offset="52%" stop-color="#1e40af"/>
      <stop offset="100%" stop-color="#0369a1"/>
    </linearGradient>
    <radialGradient id="light" cx="22%" cy="10%" r="70%">
      <stop offset="0%" stop-color="#e0f2fe" stop-opacity="0.28"/>
      <stop offset="100%" stop-color="#e0f2fe" stop-opacity="0"/>
    </radialGradient>
    <linearGradient id="badge" x1="0%" y1="0%" x2="100%" y2="100%">
      <stop offset="0%" stop-color="#22c55e"/>
      <stop offset="100%" stop-color="#06b6d4"/>
    </linearGradient>
  </defs>

  <rect x="16" y="16" width="328" height="328" rx="84" fill="url(#bg)"/>
  <rect x="16" y="16" width="328" height="328" rx="84" fill="url(#light)"/>

  <rect x="70" y="58" width="220" height="246" rx="30" fill="#f8fafc"/>
  <rect x="70" y="58" width="220" height="62" rx="30" fill="#0f172a"/>
  <rect x="70" y="96" width="220" height="24" fill="#0f172a"/>
  <path d="M246 58h44v44z" fill="#dbeafe"/>
  <rect x="100" y="42" width="16" height="34" rx="8" fill="#f8fafc"/>
  <rect x="244" y="42" width="16" height="34" rx="8" fill="#f8fafc"/>

  <circle cx="104" cy="154" r="7" fill="#3b82f6"/>
  <rect x="124" y="147" width="120" height="14" rx="7" fill="#94a3b8"/>
  <circle cx="104" cy="188" r="7" fill="#3b82f6"/>
  <rect x="124" y="181" width="120" height="14" rx="7" fill="#94a3b8"/>
  <circle cx="104" cy="222" r="7" fill="#3b82f6"/>
  <rect x="124" y="215" width="92" height="14" rx="7" fill="#94a3b8"/>

  <circle cx="242" cy="236" r="58" fill="url(#badge)"/>
  <circle cx="242" cy="236" r="44" fill="#ecfeff"/>
  <path d="M226 236l13 13 24-26" fill="none" stroke="#0f172a" stroke-width="9" stroke-linecap="round" stroke-linejoin="round"/>

  <text
    x="392"
    y="194"
    font-family="Segoe UI, Inter, Helvetica, Arial, sans-serif"
    font-size="112"
    font-weight="800"
    letter-spacing="-1"
    fill="url(#word)"
  >
    NXTMinutes
  </text>
  <text
    x="396"
    y="258"
    font-family="Segoe UI, Inter, Helvetica, Arial, sans-serif"
    font-size="33"
    font-weight="600"
    letter-spacing="3.6"
    fill="#334155"
  >
    MEETING MINUTES + ACTION FLOW
  </text>
</svg>
